{"title":"Pacific Rim 2013 BRRip 480p x264 AAC - VYTO [P2PDL]","uid":9022198,"size":477770031,"categoryP":"video","categoryS":"movies","magnet":"?xt=urn:btih:4229e15274a01296a4604386f5ac908db8d76704&amp;dn=Pacific+Rim+2013+BRRip+480p+x264+AAC+-+VYTO+%5BP2PDL%5D&amp;tr=udp%3A%2F%2Ftracker.openbittorrent.com%3A80&amp;tr=udp%3A%2F%2Fopen.demonii.com%3A1337&amp;tr=udp%3A%2F%2Ftracker.coppersurfer.tk%3A6969&amp;tr=udp%3A%2F%2Fexodus.desync.com%3A6969","seeders":1,"leechers":0,"uploader":"ValidusVyto","files":-1,"time":1381290973,"description":"_______ Visit us at our Semi Public Bittorrent Community ________\n  &lt;a href=&quot;\nhttp://p2pdl.com&quot; rel=&quot;nofollow&quot; target=&quot;_NEW&quot;&gt;\nhttp://p2pdl.com&lt;/a&gt;  _____________________________ &lt;a href=&quot; http://p2pdl.com&quot; rel=&quot;nofollow&quot; target=&quot;_NEW&quot;&gt; http://p2pdl.com&lt;/a&gt;\n\n\n\nPacific Rim 2013 BRRip 480p x264 AAC - VYTO\n\n\nGenre: Action | Adventure | Fantasy \nPlot: As a war between humankind and monstrous sea creatures wages on, a former pilot\nand a trainee are paired up to drive a seemingly obsolete special weapon in a desperate\neffort to save the world from the apocalypse. \t\t\t\t\t\t\t\t\t\t\t\t\t\t\t\nDirector: Guillermo del Toro\nStars: Idris Elba, Charlie Hunnam, Rinko Kikuchi.\nRated: PG-13 for sequences of intense sci-fi action and violence throughout, and brief\nlanguage.\n\nIMDb: &lt;a href=&quot;\nhttp://www.imdb.com/title/tt1663662/&quot; rel=&quot;nofollow&quot; target=&quot;_NEW&quot;&gt;\nhttp://www.imdb.com/title/tt1663662/&lt;/a&gt;\n\nTrailer:\n\n\nFormat                         : MPEG-4\nFile size                      : 451 MiB\nDuration                       : 2h 11mn\nOverall bit rate               : 480 Kbps\n\nVideo\nFormat                         : AVC\nCodec ID/Info                  : Advanced Video Coding\nDuration                       : 2h 11mn\nBit rate                       : 442 Kbps\nWidth                          : 720 pixels\nHeight                         : 400 pixels\nDisplay aspect ratio           : 16:9\nFrame rate mode                : Constant\nChroma subsampling             : 4:2:0\nBit depth                      : 10 bits\nStream size                    : 414 MiB (92%)\nWriting library                : x264 core 138 r2358\nAudio\nFormat                         : AAC\nBit rate mode                  : Variable\nBit rate                       : 35.9 Kbps\nChannel(s)                     : 2 channels\nChannel positions              : Front: L R\nSampling rate                  : 48.0 KHz\nStream size                    : 33.8 MiB (7%)\n\nSubtitle                       : Yes(English)\n &lt;a href=&quot;\nhttp://cdn.piczend.com/images/wJgSbdOm/1381282827_frame7.png&quot; rel=&quot;nofollow&quot; target=&quot;_NEW&quot;&gt;\nhttp://cdn.piczend.com/images/wJgSbdOm/1381282827_frame7.png&lt;/a&gt; &lt;a href=&quot;\nhttp://cdn.piczend.com/images/quxoZD3q/1381282837_frame10.png&quot; rel=&quot;nofollow&quot; target=&quot;_NEW&quot;&gt;\nhttp://cdn.piczend.com/images/quxoZD3q/1381282837_frame10.png&lt;/a&gt; &lt;a href=&quot;\nhttp://cdn.piczend.com/images/6mj27jZM/1381282826_frame11.png&quot; rel=&quot;nofollow&quot; target=&quot;_NEW&quot;&gt;\nhttp://cdn.piczend.com/images/6mj27jZM/1381282826_frame11.png&lt;/a&gt; &lt;a href=&quot;\nhttp://cdn.piczend.com/images/ls7dR4r8/1381282826_frame13.png&quot; rel=&quot;nofollow&quot; target=&quot;_NEW&quot;&gt;\nhttp://cdn.piczend.com/images/ls7dR4r8/1381282826_frame13.png&lt;/a&gt; &lt;a href=&quot;\nhttp://cdn.piczend.com/images/22dt4UEJ/1381282840_frame14.png&quot; rel=&quot;nofollow&quot; target=&quot;_NEW&quot;&gt;\nhttp://cdn.piczend.com/images/22dt4UEJ/1381282840_frame14.png&lt;/a&gt; &lt;a href=&quot;\nhttp://cdn.piczend.com/images/DcbHbdvf/1381282839_frame15.png&quot; rel=&quot;nofollow&quot; target=&quot;_NEW&quot;&gt;\nhttp://cdn.piczend.com/images/DcbHbdvf/1381282839_frame15.png&lt;/a&gt;\n\n----------------------------------------------------------------------------------------------------\n\n\nEncoded using revolutionary 10bit encoding, which enables us to provide you more crispier \nand sharper images at small sizes, just make sure you follow our instructions without a fault.\nRecommend to you to use latest version of VLC player. Install K-Lite Codec Pack or shark007 codecs\nin case of any kind of problem in playback (For non-VLC Media Player users). Alternatively, install\nCore AVC codecs, the fastest decoder that there is coupled with Community Center Codec Pack and play\non Windows Media Player Classic. Check sample to be sure.\nEnjoy!\n\nEncoder Notes:Looking For Early Access To Anything You Can Provide DVDScr, R5, DVDR, BluRay, Direct\nAudio, Music Releases and Seedboxes. We require dedicated servers, so as to do more \nand fast releases of movies.\nIf You Got anything to offer please contact us at &quot;&lt;a class=&quot;__cf_email__&quot; href=&quot;/cdn-cgi/l/email-protection&quot; data-cfemail=&quot;44343623042c31372c6a272b29&quot;&gt;[email&amp;#160;protected]&lt;/a&gt;&lt;script cf-hash='f9e31' type=&quot;text/javascript&quot;&gt;\n/* &lt;![CDATA[ */!function(){try{var t=&quot;currentScript&quot;in document?document.currentScript:function(){for(var t=document.getElementsByTagName(&quot;script&quot;),e=t.length;e--;)if(t[e].getAttribute(&quot;cf-hash&quot;))return t[e]}();if(t&amp;&amp;t.previousSibling){var e,r,n,i,c=t.previousSibling,a=c.getAttribute(&quot;data-cfemail&quot;);if(a){for(e=&quot;&quot;,r=parseInt(a.substr(0,2),16),n=2;a.length-n;n+=2)i=parseInt(a.substr(n,2),16)^r,e+=String.fromCharCode(i);e=document.createTextNode(e),c.parentNode.replaceChild(e,c)}}}catch(u){}}();/* ]]&gt; */&lt;/script&gt;&quot;.\n\nFacebook Fan Page:  \nSearch P2PDL on FB and hit like!!!\n\nFor more of our team uploads visit @                                             &lt;a href=&quot; http://thepiratebay.se/user/vitamin_x&quot; rel=&quot;nofollow&quot; target=&quot;_NEW&quot;&gt; http://thepiratebay.se/user/vitamin_x&lt;/a&gt;\t","torrent":{"xt":"urn:btih:4229e15274a01296a4604386f5ac908db8d76704","amp;dn":"Pacific+Rim+2013+BRRip+480p+x264+AAC+-+VYTO+%5BP2PDL%5D","amp;tr":["udp%3A%2F%2Ftracker.openbittorrent.com%3A80","udp%3A%2F%2Fopen.demonii.com%3A1337","udp%3A%2F%2Ftracker.coppersurfer.tk%3A6969","udp%3A%2F%2Fexodus.desync.com%3A6969"],"infoHash":"4229e15274a01296a4604386f5ac908db8d76704","infoHashBuffer":{"type":"Buffer","data":[66,41,225,82,116,160,18,150,164,96,67,134,245,172,144,141,184,215,103,4]},"announce":[],"urlList":[]}}